# xmcd
#
# Track frame offsets:
#	150
#	27348
#	50871
#	73719
#	101667
#	123315
#	144888
#	163686
#	192684
#
# Disc length: 2904 seconds
# Revision: 0
# Processed by: cddbd v1.5.2PL0 Copyright (c) Steve Scherf et al.
# Submitted via: dBpowerAMP V12.0
#
DISCID=850b5609
DTITLE=Kleeer - Seeekret
DYEAR=1985
DGENRE=R&B
TTITLE0=Take Your Heart Away
TTITLE1=You Got Me Rockin' 
TTITLE2=Lay Ya Down Ez
TTITLE3=Seeekret
TTITLE4=Do Not Lie To Me
TTITLE5=Never Cry Again
TTITLE6=Call My Name
TTITLE7=Never Cry Again (Vocal/Long Version)
TTITLE8=Take Your Heart Away (Vocal/Long Version)
EXTD=
EXTT0=
EXTT1=
EXTT2=
EXTT3=
EXTT4=
EXTT5=
EXTT6=
EXTT7=
EXTT8=
PLAYORDER=
